<svg width="42" height="34" xmlns="http://www.w3.org/2000/svg" xmlns:xlink="http://www.w3.org/1999/xlink"><defs><path id="a" d="M40.803 33.564V0H0v33.564z"/></defs><g transform="translate(.5)" fill="none" fill-rule="evenodd"><mask id="b" fill="#fff"><use xlink:href="#a"/></mask><path d="M40.803 3.972a16.466 16.466 0 01-4.8 1.331A8.438 8.438 0 0039.678.617a16.38 16.38 0 01-5.316 2.054A8.306 8.306 0 0028.258 0c-4.622 0-8.372 3.8-8.372 8.475 0 .666.075 1.312.216 1.929-6.957-.357-13.127-3.732-17.252-8.851a8.488 8.488 0 00-1.134 4.261 8.518 8.518 0 003.722 7.049 8.278 8.278 0 01-3.788-1.061v.106c0 1.09.206 2.121.572 3.076 1.022 2.651 3.32 4.657 6.141 5.235a8.325 8.325 0 01-2.203.299 8.428 8.428 0 01-1.575-.154c1.06 3.365 4.153 5.814 7.82 5.881a16.677 16.677 0 01-10.399 3.636c-.684 0-1.34-.039-2.006-.126a23.466 23.466 0 0012.835 3.809c13.09 0 21.133-9.324 23.252-18.995.375-1.706.572-3.433.572-5.11 0-.366-.01-.733-.028-1.1a16.96 16.96 0 004.172-4.387" fill="#FEFEFE" mask="url(#b)"/></g></svg>