<svg width="40" height="40" xmlns="http://www.w3.org/2000/svg" xmlns:xlink="http://www.w3.org/1999/xlink"><defs><path id="a" d="M0 40.185h39.83V0H0z"/></defs><g fill="none" fill-rule="evenodd"><mask id="b" fill="#fff"><use xlink:href="#a"/></mask><path d="M37.632 0H2.198A2.208 2.208 0 000 2.218v35.75c0 1.224.984 2.217 2.198 2.217h19.077V24.624h-5.191v-6.065h5.19v-4.473c0-5.19 3.143-8.016 7.732-8.016 2.198 0 4.088.165 4.638.238v5.425l-3.183.001c-2.495 0-2.979 1.197-2.979 2.953v3.872h5.953l-.775 6.065h-5.178v15.561h10.15a2.208 2.208 0 002.198-2.218V2.217A2.208 2.208 0 0037.632 0" fill="#FEFEFE" mask="url(#b)"/></g></svg>