<svg width="40" height="41" xmlns="http://www.w3.org/2000/svg" xmlns:xlink="http://www.w3.org/1999/xlink"><defs><path id="a" d="M0 0h110v100H0z"/></defs><g transform="translate(-27 -18)" fill="none" fill-rule="evenodd"><mask id="b" fill="#fff"><use xlink:href="#a"/></mask><path d="M29.16 32.561l15.978-12.397a3 3 0 013.675-.002l16.023 12.4A3 3 0 0166 34.933V56a2 2 0 01-2 2H52.391v-9.815a1 1 0 00-1-1h-8.624a1 1 0 00-1 1L41.757 58H30a2 2 0 01-2-2V34.931a3 3 0 011.16-2.37z" stroke="#535353" stroke-width="2" stroke-linecap="round" stroke-linejoin="round" mask="url(#b)"/></g></svg>