<svg width="44" height="44" xmlns="http://www.w3.org/2000/svg" xmlns:xlink="http://www.w3.org/1999/xlink"><defs><path id="a" d="M0 .25v41.81h43.529V.25H0z"/></defs><g fill="none" fill-rule="evenodd"><g transform="translate(0 1.171)"><mask id="b" fill="#fff"><use xlink:href="#a"/></mask><path d="M43.529 18.054C43.529 8.237 33.766.25 21.764.25 9.764.25 0 8.237 0 18.054c0 8.801 7.743 16.172 18.202 17.566.709.154 1.673.471 1.918 1.082.219.555.143 1.424.07 1.984l-.31 1.878c-.096.555-.438 2.17 1.884 1.183 2.323-.987 12.535-7.44 17.1-12.739 3.154-3.486 4.665-7.025 4.665-10.954" fill="#FEFEFE" mask="url(#b)"/></g><path d="M17.342 14.481h-1.526a.426.426 0 00-.424.427v9.56c0 .235.19.426.424.426h1.526c.234 0 .424-.19.424-.426v-9.56a.426.426 0 00-.424-.427m10.508 0h-1.527a.426.426 0 00-.423.427v5.68l-4.346-5.917a.472.472 0 00-.033-.044l-.003-.002a.383.383 0 00-.026-.027l-.008-.007a.245.245 0 00-.022-.019l-.01-.008-.023-.016a.31.31 0 00-.035-.02l-.014-.007a.248.248 0 00-.024-.01l-.014-.005-.025-.008-.015-.004-.024-.006a.26.26 0 00-.018-.002l-.023-.003a.182.182 0 00-.021-.001h-1.541a.426.426 0 00-.424.426v9.56c0 .235.19.426.424.426H21.2c.234 0 .424-.19.424-.426V18.79l4.351 5.924a.422.422 0 00.112.109l.026.016.013.006a.179.179 0 00.02.01l.02.009a.463.463 0 00.041.014l.007.001a.42.42 0 00.108.015h1.527c.235 0 .424-.19.424-.426v-9.56a.425.425 0 00-.424-.427M13.662 22.5H9.514v-7.592a.426.426 0 00-.424-.427H7.564a.426.426 0 00-.424.427v9.559c0 .115.045.22.118.296l.006.006.006.006c.077.074.18.12.293.12h6.1a.425.425 0 00.422-.428v-1.54a.425.425 0 00-.423-.427m22.618-5.625a.425.425 0 00.424-.427v-1.54a.425.425 0 00-.423-.427h-6.099a.42.42 0 00-.294.12l-.005.005-.007.008a.426.426 0 00-.118.294v9.559a.427.427 0 00.423.427h6.1a.425.425 0 00.423-.427v-1.54a.425.425 0 00-.423-.427h-4.148v-1.616h4.148a.425.425 0 00.423-.427v-1.539a.425.425 0 00-.423-.428h-4.148v-1.615h4.148z" fill="#00A83B"/></g></svg>