<svg xmlns="http://www.w3.org/2000/svg" viewBox="0 0 100 38"><path d="M93.4 13.1c-4 6.2-8.7 12.7-12.4 16.2-2.5 2.3-7.7 5.6-5.6-2.2.6-2.2 6.9-25.7 6.9-25.7-1.7 0-10.1-.5-12.9 10 0 0-1.8 6.6-2.5 9.4-.5 1.7-1.2 3.3-2.1 4.6-3 4.6-7 6.4-9.8 6.5-1.6-.1-2.4-.7-2.7-1.8-.3-1.1.3-3.5.6-4.6.3-1 6.5-24.2 6.5-24.2-.9 0-10-.8-12.9 10l-3.1 11.4c-.2.7-.7 2.1-1.6 3.4-2 2.8-5.5 5.8-7.3 5.8-1.3 0-1.8-1.5-.9-4.9l6.9-25.7h-3.1C26.6 1.3 18.9 3 13.2 6.8c-9.6 6.3-12 18.6-12 21.2 0 2.7.8 8.4 10.3 8.4 5.9 0 10-3.1 12.5-5.9l.3-.3c.2 1.3.7 2.8 1.7 4 1.2 1.5 3.6 2.3 5.8 2.3 5 0 9.2-3.3 11.5-6.3.6 2.8 2.7 6.3 10.1 6.3 5.9 0 10-3.1 12.5-5.9l.3-.3c.2 1.3.7 2.8 1.7 4l.1.1c1.2 1.3 3.7 2.1 5.6 2.1 4.3 0 8.5-2.4 12-6.2 4.6-4.8 10.6-13.6 13.1-17.2h-5.3zm-68.3 7.2c-.5 1.9-1.3 3.7-2.3 5.2-3 4.6-7 6.4-9.8 6.5-3-.1-3.3-1.9-2.1-6.4C15.1 10 24.5 6.4 29.1 5.5l-4 14.8zm41 10z" fill="#ea5404"/></svg>